# xmcd
#
# Track frame offsets:
#	150
#	2917
#	15995
#	19514
#	33509
#	39456
#	54082
#	71764
#	91123
#	99911
#	117344
#	133557
#	149282
#	165479
#	179615
#	196976
#	211774
#	227865
#
# Disc length: 3075 seconds
#
# Revision: 0
# Processed by: cddbd v1.5.1PL2 Copyright (c) Steve Scherf et al.
# Submitted via: EasyCDDAExtractor 9.0.0.1
#
DISCID=e10c0112
DTITLE=Booba - Autopsie vol. 1 [CD2)
DYEAR=2005
DGENRE=Rap
TTITLE0=Intro
TTITLE1=Freestyle Radio
TTITLE2=Le Son Qui Met La Pression
TTITLE3=La Lettre Freestyle Mixtape
TTITLE4=Prisco Zbeul - Ghetto Boy
TTITLE5=Taxi 3 - Tout C'Qu'On Connait
TTITLE6=Locked Up feat. Akon (live a s)
TTITLE7=Destinée feat. Kayna Samet
TTITLE8=J'Perds Mon Temps (freestyle M)
TTITLE9=Tallac Remix (AnimalSons)
TTITLE10=B.O Fresstyle Radio
TTITLE11=Malekal Morte - Etalons noirs
TTITLE12=Dicidens feat. Lunatic - De La
TTITLE13=Nessbeal - Rap De Paria (Skrea
TTITLE14=Freestyle Radio
TTITLE15=Nouvelle Ecole feat. Mala
TTITLE16=Ouest Side (AnimalSons)
TTITLE17=Outro
EXTD=
EXTT0=
EXTT1=
EXTT2=
EXTT3=
EXTT4=
EXTT5=
EXTT6=
EXTT7=
EXTT8=
EXTT9=
EXTT10=
EXTT11=
EXTT12=
EXTT13=
EXTT14=
EXTT15=
EXTT16=
EXTT17=
PLAYORDER=
